<svg id="visual" viewBox="0 0 2000 1000" width="2000" height="1000" xmlns="http://www.w3.org/2000/svg" xmlns:xlink="http://www.w3.org/1999/xlink" version="1.1"><rect x="0" y="0" width="2000" height="1000" fill="#090f16"></rect><path d="M0 521L200 476L400 531L600 492L800 464L1000 556L1200 584L1400 529L1600 479L1800 485L2000 467L2000 1001L1800 1001L1600 1001L1400 1001L1200 1001L1000 1001L800 1001L600 1001L400 1001L200 1001L0 1001Z" fill="#0075ff"></path><path d="M0 626L200 583L400 648L600 566L800 580L1000 630L1200 642L1400 572L1600 568L1800 650L2000 568L2000 1001L1800 1001L1600 1001L1400 1001L1200 1001L1000 1001L800 1001L600 1001L400 1001L200 1001L0 1001Z" fill="#0065d9"></path><path d="M0 656L200 623L400 630L600 655L800 632L1000 646L1200 674L1400 689L1600 648L1800 663L2000 675L2000 1001L1800 1001L1600 1001L1400 1001L1200 1001L1000 1001L800 1001L600 1001L400 1001L200 1001L0 1001Z" fill="#0055b5"></path><path d="M0 757L200 740L400 722L600 783L800 714L1000 737L1200 788L1400 718L1600 728L1800 758L2000 739L2000 1001L1800 1001L1600 1001L1400 1001L1200 1001L1000 1001L800 1001L600 1001L400 1001L200 1001L0 1001Z" fill="#004591"></path><path d="M0 810L200 803L400 840L600 824L800 857L1000 851L1200 801L1400 807L1600 835L1800 791L2000 805L2000 1001L1800 1001L1600 1001L1400 1001L1200 1001L1000 1001L800 1001L600 1001L400 1001L200 1001L0 1001Z" fill="#00366f"></path><path d="M0 878L200 903L400 871L600 924L800 920L1000 895L1200 900L1400 924L1600 915L1800 881L2000 920L2000 1001L1800 1001L1600 1001L1400 1001L1200 1001L1000 1001L800 1001L600 1001L400 1001L200 1001L0 1001Z" fill="#04274e"></path></svg>